<mxfile host="app.diagrams.net" modified="2021-03-26T01:32:02.361Z" agent="5.0 (Windows NT 10.0; Win64; x64) AppleWebKit/537.36 (KHTML, like Gecko) Chrome/89.0.4389.90 Safari/537.36 Edg/89.0.774.57" etag="1Gluk9GG0jLq-mwKlvDh" version="14.4.2" type="github">
  <diagram id="x87WVIfukVuzpfLglqjt" name="Page-1">
    <mxGraphModel dx="1550" dy="868" grid="1" gridSize="10" guides="1" tooltips="1" connect="1" arrows="1" fold="1" page="1" pageScale="1" pageWidth="827" pageHeight="1169" math="0" shadow="0">
      <root>
        <mxCell id="0" />
        <mxCell id="1" parent="0" />
        <mxCell id="iU9pxKzeouGR61ay9LNh-30" value="" style="rounded=1;whiteSpace=wrap;html=1;absoluteArcSize=1;arcSize=14;strokeWidth=2;" vertex="1" parent="1">
          <mxGeometry x="620" y="573" width="207" height="230" as="geometry" />
        </mxCell>
        <mxCell id="iU9pxKzeouGR61ay9LNh-27" value="" style="rounded=1;whiteSpace=wrap;html=1;absoluteArcSize=1;arcSize=14;strokeWidth=2;" vertex="1" parent="1">
          <mxGeometry x="620" y="40" width="207" height="480" as="geometry" />
        </mxCell>
        <mxCell id="iU9pxKzeouGR61ay9LNh-25" value="" style="rounded=1;whiteSpace=wrap;html=1;absoluteArcSize=1;arcSize=14;strokeWidth=2;" vertex="1" parent="1">
          <mxGeometry x="330" y="165" width="230" height="230" as="geometry" />
        </mxCell>
        <mxCell id="iU9pxKzeouGR61ay9LNh-3" value="" style="edgeStyle=orthogonalEdgeStyle;rounded=0;orthogonalLoop=1;jettySize=auto;html=1;" edge="1" parent="1" source="iU9pxKzeouGR61ay9LNh-1" target="iU9pxKzeouGR61ay9LNh-2">
          <mxGeometry relative="1" as="geometry" />
        </mxCell>
        <mxCell id="iU9pxKzeouGR61ay9LNh-1" value="核心流程" style="rounded=1;whiteSpace=wrap;html=1;" vertex="1" parent="1">
          <mxGeometry x="110" y="20" width="120" height="60" as="geometry" />
        </mxCell>
        <mxCell id="iU9pxKzeouGR61ay9LNh-17" value="" style="edgeStyle=orthogonalEdgeStyle;rounded=0;orthogonalLoop=1;jettySize=auto;html=1;" edge="1" parent="1" source="iU9pxKzeouGR61ay9LNh-2" target="iU9pxKzeouGR61ay9LNh-16">
          <mxGeometry relative="1" as="geometry" />
        </mxCell>
        <mxCell id="iU9pxKzeouGR61ay9LNh-2" value="processBeforeScan" style="rounded=0;whiteSpace=wrap;html=1;" vertex="1" parent="1">
          <mxGeometry x="110" y="250" width="120" height="60" as="geometry" />
        </mxCell>
        <mxCell id="iU9pxKzeouGR61ay9LNh-6" value="" style="edgeStyle=orthogonalEdgeStyle;rounded=0;orthogonalLoop=1;jettySize=auto;html=1;" edge="1" parent="1" source="iU9pxKzeouGR61ay9LNh-4" target="iU9pxKzeouGR61ay9LNh-5">
          <mxGeometry relative="1" as="geometry" />
        </mxCell>
        <mxCell id="iU9pxKzeouGR61ay9LNh-4" value="赋值m_site_paras&lt;br&gt;参数成员变量" style="rounded=0;whiteSpace=wrap;html=1;" vertex="1" parent="1">
          <mxGeometry x="385" y="190" width="120" height="60" as="geometry" />
        </mxCell>
        <mxCell id="iU9pxKzeouGR61ay9LNh-5" value="调用&lt;br&gt;init_mt_binary_threshold" style="whiteSpace=wrap;html=1;rounded=0;" vertex="1" parent="1">
          <mxGeometry x="360" y="290" width="170" height="60" as="geometry" />
        </mxCell>
        <mxCell id="iU9pxKzeouGR61ay9LNh-9" value="" style="edgeStyle=orthogonalEdgeStyle;rounded=0;orthogonalLoop=1;jettySize=auto;html=1;" edge="1" parent="1" source="iU9pxKzeouGR61ay9LNh-7" target="iU9pxKzeouGR61ay9LNh-8">
          <mxGeometry relative="1" as="geometry" />
        </mxCell>
        <mxCell id="iU9pxKzeouGR61ay9LNh-7" value="初始化&lt;br&gt;二值化查找表" style="rounded=0;whiteSpace=wrap;html=1;" vertex="1" parent="1">
          <mxGeometry x="663.5" y="70" width="120" height="60" as="geometry" />
        </mxCell>
        <mxCell id="iU9pxKzeouGR61ay9LNh-11" value="" style="edgeStyle=orthogonalEdgeStyle;rounded=0;orthogonalLoop=1;jettySize=auto;html=1;" edge="1" parent="1" source="iU9pxKzeouGR61ay9LNh-8" target="iU9pxKzeouGR61ay9LNh-10">
          <mxGeometry relative="1" as="geometry" />
        </mxCell>
        <mxCell id="iU9pxKzeouGR61ay9LNh-8" value="初始化&lt;br&gt;背景去除投票矩阵" style="whiteSpace=wrap;html=1;rounded=0;" vertex="1" parent="1">
          <mxGeometry x="663.5" y="160" width="120" height="60" as="geometry" />
        </mxCell>
        <mxCell id="iU9pxKzeouGR61ay9LNh-13" value="" style="edgeStyle=orthogonalEdgeStyle;rounded=0;orthogonalLoop=1;jettySize=auto;html=1;" edge="1" parent="1" source="iU9pxKzeouGR61ay9LNh-10" target="iU9pxKzeouGR61ay9LNh-12">
          <mxGeometry relative="1" as="geometry" />
        </mxCell>
        <mxCell id="iU9pxKzeouGR61ay9LNh-10" value="赋值&lt;br&gt;mt_rows&lt;br&gt;mt_cols" style="whiteSpace=wrap;html=1;rounded=0;" vertex="1" parent="1">
          <mxGeometry x="663.5" y="250" width="120" height="60" as="geometry" />
        </mxCell>
        <mxCell id="iU9pxKzeouGR61ay9LNh-15" value="" style="edgeStyle=orthogonalEdgeStyle;rounded=0;orthogonalLoop=1;jettySize=auto;html=1;" edge="1" parent="1" source="iU9pxKzeouGR61ay9LNh-12" target="iU9pxKzeouGR61ay9LNh-14">
          <mxGeometry relative="1" as="geometry" />
        </mxCell>
        <mxCell id="iU9pxKzeouGR61ay9LNh-12" value="二值化结果&lt;br&gt;容器清空" style="whiteSpace=wrap;html=1;rounded=0;" vertex="1" parent="1">
          <mxGeometry x="663.5" y="340" width="120" height="60" as="geometry" />
        </mxCell>
        <mxCell id="iU9pxKzeouGR61ay9LNh-14" value="初始化ROI&lt;br&gt;查找表" style="whiteSpace=wrap;html=1;rounded=0;" vertex="1" parent="1">
          <mxGeometry x="663.5" y="430" width="120" height="60" as="geometry" />
        </mxCell>
        <mxCell id="iU9pxKzeouGR61ay9LNh-32" value="" style="edgeStyle=orthogonalEdgeStyle;rounded=0;orthogonalLoop=1;jettySize=auto;html=1;" edge="1" parent="1" source="iU9pxKzeouGR61ay9LNh-16" target="iU9pxKzeouGR61ay9LNh-31">
          <mxGeometry relative="1" as="geometry" />
        </mxCell>
        <mxCell id="iU9pxKzeouGR61ay9LNh-16" value="processDuringScan" style="rounded=0;whiteSpace=wrap;html=1;" vertex="1" parent="1">
          <mxGeometry x="110" y="600" width="120" height="60" as="geometry" />
        </mxCell>
        <mxCell id="iU9pxKzeouGR61ay9LNh-18" value="调用&lt;br&gt;mt_binary_threshold" style="rounded=0;whiteSpace=wrap;html=1;" vertex="1" parent="1">
          <mxGeometry x="385" y="600" width="120" height="60" as="geometry" />
        </mxCell>
        <mxCell id="iU9pxKzeouGR61ay9LNh-21" value="" style="edgeStyle=orthogonalEdgeStyle;rounded=0;orthogonalLoop=1;jettySize=auto;html=1;" edge="1" parent="1" source="iU9pxKzeouGR61ay9LNh-19" target="iU9pxKzeouGR61ay9LNh-20">
          <mxGeometry relative="1" as="geometry" />
        </mxCell>
        <mxCell id="iU9pxKzeouGR61ay9LNh-19" value="提取二值化结果&lt;br&gt;填充二值化容器" style="rounded=0;whiteSpace=wrap;html=1;" vertex="1" parent="1">
          <mxGeometry x="660" y="600" width="120" height="60" as="geometry" />
        </mxCell>
        <mxCell id="iU9pxKzeouGR61ay9LNh-20" value="累加背景去除&lt;br&gt;投票矩阵" style="whiteSpace=wrap;html=1;rounded=0;" vertex="1" parent="1">
          <mxGeometry x="660" y="700" width="120" height="60" as="geometry" />
        </mxCell>
        <mxCell id="iU9pxKzeouGR61ay9LNh-22" value="" style="endArrow=none;dashed=1;html=1;dashPattern=1 3;strokeWidth=2;exitX=1;exitY=0.5;exitDx=0;exitDy=0;entryX=0;entryY=0.5;entryDx=0;entryDy=0;" edge="1" parent="1" source="iU9pxKzeouGR61ay9LNh-16" target="iU9pxKzeouGR61ay9LNh-18">
          <mxGeometry width="50" height="50" relative="1" as="geometry">
            <mxPoint x="280" y="620" as="sourcePoint" />
            <mxPoint x="330" y="570" as="targetPoint" />
          </mxGeometry>
        </mxCell>
        <mxCell id="iU9pxKzeouGR61ay9LNh-23" value="" style="endArrow=none;dashed=1;html=1;dashPattern=1 3;strokeWidth=2;exitX=1;exitY=0.5;exitDx=0;exitDy=0;entryX=0;entryY=0.25;entryDx=0;entryDy=0;" edge="1" parent="1" source="iU9pxKzeouGR61ay9LNh-18" target="iU9pxKzeouGR61ay9LNh-30">
          <mxGeometry width="50" height="50" relative="1" as="geometry">
            <mxPoint x="510" y="584" as="sourcePoint" />
            <mxPoint x="665" y="584" as="targetPoint" />
          </mxGeometry>
        </mxCell>
        <mxCell id="iU9pxKzeouGR61ay9LNh-24" value="" style="endArrow=none;dashed=1;html=1;dashPattern=1 3;strokeWidth=2;exitX=1;exitY=0.5;exitDx=0;exitDy=0;entryX=0;entryY=0.5;entryDx=0;entryDy=0;" edge="1" parent="1" source="iU9pxKzeouGR61ay9LNh-2" target="iU9pxKzeouGR61ay9LNh-25">
          <mxGeometry width="50" height="50" relative="1" as="geometry">
            <mxPoint x="270" y="230" as="sourcePoint" />
            <mxPoint x="320" y="280" as="targetPoint" />
          </mxGeometry>
        </mxCell>
        <mxCell id="iU9pxKzeouGR61ay9LNh-28" value="" style="endArrow=none;dashed=1;html=1;dashPattern=1 3;strokeWidth=2;exitX=1;exitY=0.5;exitDx=0;exitDy=0;entryX=0;entryY=0.5;entryDx=0;entryDy=0;" edge="1" parent="1" source="iU9pxKzeouGR61ay9LNh-5" target="iU9pxKzeouGR61ay9LNh-27">
          <mxGeometry width="50" height="50" relative="1" as="geometry">
            <mxPoint x="240" y="290" as="sourcePoint" />
            <mxPoint x="340" y="290" as="targetPoint" />
          </mxGeometry>
        </mxCell>
        <mxCell id="iU9pxKzeouGR61ay9LNh-31" value="processAfterScan" style="whiteSpace=wrap;html=1;rounded=0;" vertex="1" parent="1">
          <mxGeometry x="110" y="890" width="120" height="60" as="geometry" />
        </mxCell>
        <mxCell id="iU9pxKzeouGR61ay9LNh-35" value="" style="edgeStyle=orthogonalEdgeStyle;rounded=0;orthogonalLoop=1;jettySize=auto;html=1;" edge="1" parent="1" source="iU9pxKzeouGR61ay9LNh-33" target="iU9pxKzeouGR61ay9LNh-34">
          <mxGeometry relative="1" as="geometry" />
        </mxCell>
        <mxCell id="iU9pxKzeouGR61ay9LNh-33" value="循环调用&lt;br&gt;my_double_hough" style="rounded=0;whiteSpace=wrap;html=1;" vertex="1" parent="1">
          <mxGeometry x="385" y="890" width="120" height="60" as="geometry" />
        </mxCell>
        <mxCell id="iU9pxKzeouGR61ay9LNh-38" value="" style="edgeStyle=orthogonalEdgeStyle;rounded=0;orthogonalLoop=1;jettySize=auto;html=1;" edge="1" parent="1" source="iU9pxKzeouGR61ay9LNh-34" target="iU9pxKzeouGR61ay9LNh-37">
          <mxGeometry relative="1" as="geometry" />
        </mxCell>
        <mxCell id="iU9pxKzeouGR61ay9LNh-34" value="初始化起止点定位&lt;br&gt;init_StartEndLocation" style="whiteSpace=wrap;html=1;rounded=0;" vertex="1" parent="1">
          <mxGeometry x="385" y="1030" width="120" height="60" as="geometry" />
        </mxCell>
        <mxCell id="iU9pxKzeouGR61ay9LNh-36" value="初始化hough&lt;br&gt;init_double_hough" style="rounded=0;whiteSpace=wrap;html=1;" vertex="1" parent="1">
          <mxGeometry x="385" y="800" width="120" height="60" as="geometry" />
        </mxCell>
        <mxCell id="iU9pxKzeouGR61ay9LNh-37" value="初始化端点检测&lt;br&gt;init_LineSegFind" style="whiteSpace=wrap;html=1;rounded=0;" vertex="1" parent="1">
          <mxGeometry x="385" y="1170" width="120" height="60" as="geometry" />
        </mxCell>
      </root>
    </mxGraphModel>
  </diagram>
</mxfile>
